<mxfile host="Electron" agent="Mozilla/5.0 (Windows NT 10.0; Win64; x64) AppleWebKit/537.36 (KHTML, like Gecko) draw.io/28.1.2 Chrome/138.0.7204.243 Electron/37.4.0 Safari/537.36" version="28.1.2">
  <diagram name="Page-1" id="HbWn4fBAT66-o-Pd7Z7B">
    <mxGraphModel dx="2430" dy="1111" grid="1" gridSize="10" guides="1" tooltips="1" connect="1" arrows="1" fold="1" page="1" pageScale="1" pageWidth="827" pageHeight="1169" math="0" shadow="0">
      <root>
        <mxCell id="0" />
        <mxCell id="1" parent="0" />
        <mxCell id="hHqcD5JZKNowdcuXRPlC-10" style="edgeStyle=orthogonalEdgeStyle;rounded=0;orthogonalLoop=1;jettySize=auto;html=1;entryX=0.5;entryY=0;entryDx=0;entryDy=0;" edge="1" parent="1" source="TjdyM8zFQbpC29eJfy2d-1" target="TjdyM8zFQbpC29eJfy2d-2">
          <mxGeometry relative="1" as="geometry" />
        </mxCell>
        <mxCell id="TjdyM8zFQbpC29eJfy2d-1" value="MDP&lt;div&gt;oublié&lt;/div&gt;&lt;div&gt;&lt;br&gt;&lt;/div&gt;&lt;div&gt;&lt;br&gt;&lt;/div&gt;&lt;div&gt;&lt;br&gt;&lt;/div&gt;&lt;div&gt;&lt;br&gt;&lt;/div&gt;&lt;div&gt;&lt;br&gt;&lt;/div&gt;&lt;div&gt;&amp;nbsp;&lt;/div&gt;" style="whiteSpace=wrap;html=1;aspect=fixed;" parent="1" vertex="1">
          <mxGeometry x="-100" y="322.5" width="170" height="170" as="geometry" />
        </mxCell>
        <mxCell id="hHqcD5JZKNowdcuXRPlC-16" style="edgeStyle=orthogonalEdgeStyle;rounded=0;orthogonalLoop=1;jettySize=auto;html=1;entryX=0;entryY=0.25;entryDx=0;entryDy=0;" edge="1" parent="1" source="TjdyM8zFQbpC29eJfy2d-2" target="hHqcD5JZKNowdcuXRPlC-13">
          <mxGeometry relative="1" as="geometry" />
        </mxCell>
        <mxCell id="hHqcD5JZKNowdcuXRPlC-40" style="edgeStyle=orthogonalEdgeStyle;rounded=0;orthogonalLoop=1;jettySize=auto;html=1;" edge="1" parent="1" source="TjdyM8zFQbpC29eJfy2d-2" target="hHqcD5JZKNowdcuXRPlC-33">
          <mxGeometry relative="1" as="geometry" />
        </mxCell>
        <mxCell id="TjdyM8zFQbpC29eJfy2d-2" value="" style="whiteSpace=wrap;html=1;aspect=fixed;" parent="1" vertex="1">
          <mxGeometry x="-65" y="564.5" width="160" height="160" as="geometry" />
        </mxCell>
        <mxCell id="TjdyM8zFQbpC29eJfy2d-3" value="IHM" style="whiteSpace=wrap;html=1;aspect=fixed;fillColor=#fff2cc;strokeColor=#d6b656;" parent="1" vertex="1">
          <mxGeometry x="640" y="30" width="80" height="80" as="geometry" />
        </mxCell>
        <mxCell id="TjdyM8zFQbpC29eJfy2d-49" style="edgeStyle=orthogonalEdgeStyle;rounded=0;orthogonalLoop=1;jettySize=auto;html=1;" parent="1" source="TjdyM8zFQbpC29eJfy2d-8" edge="1">
          <mxGeometry relative="1" as="geometry">
            <mxPoint x="-30" y="320" as="targetPoint" />
            <Array as="points">
              <mxPoint x="40" y="275" />
              <mxPoint x="-29" y="275" />
              <mxPoint x="-29" y="320" />
            </Array>
          </mxGeometry>
        </mxCell>
        <mxCell id="hHqcD5JZKNowdcuXRPlC-5" style="edgeStyle=orthogonalEdgeStyle;rounded=0;orthogonalLoop=1;jettySize=auto;html=1;" edge="1" parent="1" source="TjdyM8zFQbpC29eJfy2d-8" target="hHqcD5JZKNowdcuXRPlC-4">
          <mxGeometry relative="1" as="geometry" />
        </mxCell>
        <mxCell id="hHqcD5JZKNowdcuXRPlC-8" value="&lt;font style=&quot;color: rgb(255, 0, 0); font-size: 15px;&quot;&gt;&lt;b&gt;Echec&lt;/b&gt;&lt;/font&gt;" style="edgeLabel;html=1;align=center;verticalAlign=middle;resizable=0;points=[];" vertex="1" connectable="0" parent="hHqcD5JZKNowdcuXRPlC-5">
          <mxGeometry x="0.3476" y="-1" relative="1" as="geometry">
            <mxPoint as="offset" />
          </mxGeometry>
        </mxCell>
        <mxCell id="TjdyM8zFQbpC29eJfy2d-8" value="" style="swimlane;startSize=0;" parent="1" vertex="1">
          <mxGeometry x="-40" y="40" width="160" height="190" as="geometry" />
        </mxCell>
        <mxCell id="TjdyM8zFQbpC29eJfy2d-9" value="matricule" style="rounded=0;whiteSpace=wrap;html=1;fillColor=#d5e8d4;strokeColor=#82b366;" parent="TjdyM8zFQbpC29eJfy2d-8" vertex="1">
          <mxGeometry x="10" y="20" width="120" height="30" as="geometry" />
        </mxCell>
        <mxCell id="TjdyM8zFQbpC29eJfy2d-10" value="Password" style="rounded=0;whiteSpace=wrap;html=1;fillColor=#d5e8d4;strokeColor=#82b366;" parent="TjdyM8zFQbpC29eJfy2d-8" vertex="1">
          <mxGeometry x="10" y="70" width="120" height="30" as="geometry" />
        </mxCell>
        <mxCell id="TjdyM8zFQbpC29eJfy2d-11" value="submit" style="rounded=0;whiteSpace=wrap;html=1;fillColor=#dae8fc;strokeColor=#6c8ebf;" parent="TjdyM8zFQbpC29eJfy2d-8" vertex="1">
          <mxGeometry x="30" y="150" width="80" height="20" as="geometry" />
        </mxCell>
        <mxCell id="TjdyM8zFQbpC29eJfy2d-40" value="Mot de passe oublié?" style="text;html=1;align=center;verticalAlign=middle;resizable=0;points=[];autosize=1;strokeColor=none;fillColor=none;" parent="TjdyM8zFQbpC29eJfy2d-8" vertex="1">
          <mxGeometry y="110" width="140" height="30" as="geometry" />
        </mxCell>
        <mxCell id="TjdyM8zFQbpC29eJfy2d-42" value="saisir&amp;nbsp; matricule" style="rounded=0;whiteSpace=wrap;html=1;fillColor=#ffe6cc;strokeColor=#d79b00;" parent="1" vertex="1">
          <mxGeometry x="-75" y="392.5" width="120" height="30" as="geometry" />
        </mxCell>
        <mxCell id="TjdyM8zFQbpC29eJfy2d-44" value="saisir&amp;nbsp; code vérification" style="rounded=0;whiteSpace=wrap;html=1;fillColor=#ffe6cc;strokeColor=#d79b00;" parent="1" vertex="1">
          <mxGeometry x="-45" y="600" width="120" height="60" as="geometry" />
        </mxCell>
        <mxCell id="TjdyM8zFQbpC29eJfy2d-45" value="submit" style="rounded=0;whiteSpace=wrap;html=1;fillColor=#dae8fc;strokeColor=#6c8ebf;" parent="1" vertex="1">
          <mxGeometry x="-75" y="433.5" width="120" height="30" as="geometry" />
        </mxCell>
        <mxCell id="hHqcD5JZKNowdcuXRPlC-31" style="edgeStyle=orthogonalEdgeStyle;rounded=0;orthogonalLoop=1;jettySize=auto;html=1;entryX=0.5;entryY=0;entryDx=0;entryDy=0;" edge="1" parent="1" source="RMezayaGzcDHLrbHB1K9-2" target="RMezayaGzcDHLrbHB1K9-4">
          <mxGeometry relative="1" as="geometry" />
        </mxCell>
        <mxCell id="RMezayaGzcDHLrbHB1K9-2" value="&lt;b&gt;1ére connexion&amp;nbsp;&lt;/b&gt;" style="whiteSpace=wrap;html=1;aspect=fixed;fillColor=#e1d5e7;strokeColor=#9673a6;" parent="1" vertex="1">
          <mxGeometry x="-370" y="110" width="80" height="80" as="geometry" />
        </mxCell>
        <mxCell id="RMezayaGzcDHLrbHB1K9-3" style="edgeStyle=orthogonalEdgeStyle;rounded=0;orthogonalLoop=1;jettySize=auto;html=1;" parent="1" source="TjdyM8zFQbpC29eJfy2d-40" target="RMezayaGzcDHLrbHB1K9-2" edge="1">
          <mxGeometry relative="1" as="geometry">
            <Array as="points">
              <mxPoint x="-240" y="165" />
              <mxPoint x="-240" y="165" />
            </Array>
          </mxGeometry>
        </mxCell>
        <mxCell id="RMezayaGzcDHLrbHB1K9-10" style="edgeStyle=orthogonalEdgeStyle;rounded=0;orthogonalLoop=1;jettySize=auto;html=1;entryX=0;entryY=0.25;entryDx=0;entryDy=0;" parent="1" source="RMezayaGzcDHLrbHB1K9-4" target="TjdyM8zFQbpC29eJfy2d-8" edge="1">
          <mxGeometry relative="1" as="geometry">
            <Array as="points">
              <mxPoint x="-420" y="88" />
            </Array>
          </mxGeometry>
        </mxCell>
        <mxCell id="hHqcD5JZKNowdcuXRPlC-29" value="&lt;font style=&quot;font-size: 15px; color: rgb(0, 204, 0);&quot;&gt;&lt;b&gt;Succées&lt;/b&gt;&lt;/font&gt;" style="edgeLabel;html=1;align=center;verticalAlign=middle;resizable=0;points=[];" vertex="1" connectable="0" parent="RMezayaGzcDHLrbHB1K9-10">
          <mxGeometry x="-0.725" y="-1" relative="1" as="geometry">
            <mxPoint as="offset" />
          </mxGeometry>
        </mxCell>
        <mxCell id="hHqcD5JZKNowdcuXRPlC-22" style="edgeStyle=orthogonalEdgeStyle;rounded=0;orthogonalLoop=1;jettySize=auto;html=1;" edge="1" parent="1" source="RMezayaGzcDHLrbHB1K9-4" target="hHqcD5JZKNowdcuXRPlC-19">
          <mxGeometry relative="1" as="geometry" />
        </mxCell>
        <mxCell id="hHqcD5JZKNowdcuXRPlC-25" style="edgeStyle=orthogonalEdgeStyle;rounded=0;orthogonalLoop=1;jettySize=auto;html=1;" edge="1" parent="1" source="RMezayaGzcDHLrbHB1K9-4" target="hHqcD5JZKNowdcuXRPlC-20">
          <mxGeometry relative="1" as="geometry" />
        </mxCell>
        <mxCell id="RMezayaGzcDHLrbHB1K9-4" value="" style="whiteSpace=wrap;html=1;aspect=fixed;fillColor=#e1d5e7;strokeColor=#9673a6;" parent="1" vertex="1">
          <mxGeometry x="-520" y="322.5" width="252" height="252" as="geometry" />
        </mxCell>
        <mxCell id="RMezayaGzcDHLrbHB1K9-6" value="saisir ancien&amp;nbsp; &amp;nbsp;mdp&amp;nbsp;&amp;nbsp;" style="rounded=0;whiteSpace=wrap;html=1;" parent="1" vertex="1">
          <mxGeometry x="-494" y="367" width="180" height="37.5" as="geometry" />
        </mxCell>
        <mxCell id="RMezayaGzcDHLrbHB1K9-7" value="saisir nouveau mdp&amp;nbsp;" style="rounded=0;whiteSpace=wrap;html=1;" parent="1" vertex="1">
          <mxGeometry x="-494" y="422" width="180" height="37.5" as="geometry" />
        </mxCell>
        <mxCell id="RMezayaGzcDHLrbHB1K9-9" value="submit" style="rounded=0;whiteSpace=wrap;html=1;fillColor=#dae8fc;strokeColor=#6c8ebf;" parent="1" vertex="1">
          <mxGeometry x="-468" y="527.5" width="120" height="37" as="geometry" />
        </mxCell>
        <mxCell id="RMezayaGzcDHLrbHB1K9-12" value="confirmer nouveau mdp" style="rounded=0;whiteSpace=wrap;html=1;" parent="1" vertex="1">
          <mxGeometry x="-494" y="470" width="180" height="37.5" as="geometry" />
        </mxCell>
        <mxCell id="hHqcD5JZKNowdcuXRPlC-4" value="message erreur&amp;nbsp;&lt;div&gt;email or mdp&amp;nbsp;&lt;/div&gt;&lt;div&gt;incorrect&lt;/div&gt;" style="whiteSpace=wrap;html=1;aspect=fixed;fillColor=#f8cecc;strokeColor=#b85450;" vertex="1" parent="1">
          <mxGeometry x="400" y="275.25" width="146.75" height="146.75" as="geometry" />
        </mxCell>
        <mxCell id="hHqcD5JZKNowdcuXRPlC-6" style="edgeStyle=orthogonalEdgeStyle;rounded=0;orthogonalLoop=1;jettySize=auto;html=1;entryX=0.021;entryY=0.403;entryDx=0;entryDy=0;entryPerimeter=0;" edge="1" parent="1" source="TjdyM8zFQbpC29eJfy2d-8" target="TjdyM8zFQbpC29eJfy2d-3">
          <mxGeometry relative="1" as="geometry" />
        </mxCell>
        <mxCell id="hHqcD5JZKNowdcuXRPlC-7" value="&lt;b&gt;&lt;font style=&quot;color: rgb(0, 204, 102); font-size: 15px;&quot;&gt;Succées&lt;/font&gt;&lt;/b&gt;" style="edgeLabel;html=1;align=center;verticalAlign=middle;resizable=0;points=[];" vertex="1" connectable="0" parent="hHqcD5JZKNowdcuXRPlC-6">
          <mxGeometry x="0.3172" y="4" relative="1" as="geometry">
            <mxPoint as="offset" />
          </mxGeometry>
        </mxCell>
        <mxCell id="hHqcD5JZKNowdcuXRPlC-9" style="edgeStyle=orthogonalEdgeStyle;rounded=0;orthogonalLoop=1;jettySize=auto;html=1;entryX=1.005;entryY=0.839;entryDx=0;entryDy=0;entryPerimeter=0;" edge="1" parent="1" source="hHqcD5JZKNowdcuXRPlC-4" target="TjdyM8zFQbpC29eJfy2d-8">
          <mxGeometry relative="1" as="geometry" />
        </mxCell>
        <mxCell id="hHqcD5JZKNowdcuXRPlC-17" style="edgeStyle=orthogonalEdgeStyle;rounded=0;orthogonalLoop=1;jettySize=auto;html=1;entryX=1;entryY=0.75;entryDx=0;entryDy=0;" edge="1" parent="1" source="hHqcD5JZKNowdcuXRPlC-12" target="TjdyM8zFQbpC29eJfy2d-1">
          <mxGeometry relative="1" as="geometry" />
        </mxCell>
        <mxCell id="hHqcD5JZKNowdcuXRPlC-12" value="message erreur&amp;nbsp;&lt;div&gt;email incorrect&lt;/div&gt;" style="whiteSpace=wrap;html=1;aspect=fixed;fillColor=#f8cecc;strokeColor=#b85450;" vertex="1" parent="1">
          <mxGeometry x="190" y="360.75" width="146.75" height="146.75" as="geometry" />
        </mxCell>
        <mxCell id="hHqcD5JZKNowdcuXRPlC-18" style="edgeStyle=orthogonalEdgeStyle;rounded=0;orthogonalLoop=1;jettySize=auto;html=1;entryX=1;entryY=0.75;entryDx=0;entryDy=0;" edge="1" parent="1" source="hHqcD5JZKNowdcuXRPlC-13" target="TjdyM8zFQbpC29eJfy2d-2">
          <mxGeometry relative="1" as="geometry" />
        </mxCell>
        <mxCell id="hHqcD5JZKNowdcuXRPlC-13" value="message erreur&amp;nbsp;&lt;div&gt;code&amp;nbsp; incorrect&lt;/div&gt;" style="whiteSpace=wrap;html=1;aspect=fixed;fillColor=#f8cecc;strokeColor=#b85450;" vertex="1" parent="1">
          <mxGeometry x="253.25" y="610" width="146.75" height="146.75" as="geometry" />
        </mxCell>
        <mxCell id="hHqcD5JZKNowdcuXRPlC-15" style="edgeStyle=orthogonalEdgeStyle;rounded=0;orthogonalLoop=1;jettySize=auto;html=1;entryX=-0.003;entryY=0.375;entryDx=0;entryDy=0;entryPerimeter=0;" edge="1" parent="1" source="TjdyM8zFQbpC29eJfy2d-1" target="hHqcD5JZKNowdcuXRPlC-12">
          <mxGeometry relative="1" as="geometry" />
        </mxCell>
        <mxCell id="hHqcD5JZKNowdcuXRPlC-24" style="edgeStyle=orthogonalEdgeStyle;rounded=0;orthogonalLoop=1;jettySize=auto;html=1;entryX=0;entryY=0.25;entryDx=0;entryDy=0;" edge="1" parent="1" source="hHqcD5JZKNowdcuXRPlC-19" target="RMezayaGzcDHLrbHB1K9-4">
          <mxGeometry relative="1" as="geometry" />
        </mxCell>
        <mxCell id="hHqcD5JZKNowdcuXRPlC-19" value="message erreur&amp;nbsp;&lt;div&gt;ancien mdp incorrect&lt;/div&gt;" style="whiteSpace=wrap;html=1;aspect=fixed;fillColor=#f8cecc;strokeColor=#b85450;" vertex="1" parent="1">
          <mxGeometry x="-790" y="100" width="146.75" height="146.75" as="geometry" />
        </mxCell>
        <mxCell id="hHqcD5JZKNowdcuXRPlC-28" style="edgeStyle=orthogonalEdgeStyle;rounded=0;orthogonalLoop=1;jettySize=auto;html=1;entryX=1;entryY=0.25;entryDx=0;entryDy=0;" edge="1" parent="1" source="hHqcD5JZKNowdcuXRPlC-20" target="RMezayaGzcDHLrbHB1K9-4">
          <mxGeometry relative="1" as="geometry">
            <Array as="points">
              <mxPoint x="-248" y="670" />
              <mxPoint x="-248" y="385" />
            </Array>
          </mxGeometry>
        </mxCell>
        <mxCell id="hHqcD5JZKNowdcuXRPlC-45" style="edgeStyle=orthogonalEdgeStyle;rounded=0;orthogonalLoop=1;jettySize=auto;html=1;entryX=0.5;entryY=1;entryDx=0;entryDy=0;exitX=0.25;exitY=1;exitDx=0;exitDy=0;" edge="1" parent="1" source="hHqcD5JZKNowdcuXRPlC-20" target="hHqcD5JZKNowdcuXRPlC-33">
          <mxGeometry relative="1" as="geometry" />
        </mxCell>
        <mxCell id="hHqcD5JZKNowdcuXRPlC-20" value="message erreur&amp;nbsp;&lt;div&gt;pas de cohérence entre ancien et nouveau&amp;nbsp;&lt;/div&gt;&lt;div&gt;mdp&lt;/div&gt;" style="whiteSpace=wrap;html=1;aspect=fixed;fillColor=#f8cecc;strokeColor=#b85450;" vertex="1" parent="1">
          <mxGeometry x="-400" y="640" width="146.75" height="146.75" as="geometry" />
        </mxCell>
        <mxCell id="hHqcD5JZKNowdcuXRPlC-44" style="edgeStyle=orthogonalEdgeStyle;rounded=0;orthogonalLoop=1;jettySize=auto;html=1;exitX=0;exitY=0.5;exitDx=0;exitDy=0;entryX=0;entryY=0.75;entryDx=0;entryDy=0;" edge="1" parent="1" source="hHqcD5JZKNowdcuXRPlC-33" target="TjdyM8zFQbpC29eJfy2d-8">
          <mxGeometry relative="1" as="geometry">
            <Array as="points">
              <mxPoint x="-160" y="867" />
              <mxPoint x="-160" y="183" />
            </Array>
          </mxGeometry>
        </mxCell>
        <mxCell id="hHqcD5JZKNowdcuXRPlC-46" style="edgeStyle=orthogonalEdgeStyle;rounded=0;orthogonalLoop=1;jettySize=auto;html=1;exitX=0.025;exitY=0.822;exitDx=0;exitDy=0;exitPerimeter=0;" edge="1" parent="1" source="hHqcD5JZKNowdcuXRPlC-33" target="hHqcD5JZKNowdcuXRPlC-20">
          <mxGeometry relative="1" as="geometry">
            <mxPoint x="-100" y="930" as="sourcePoint" />
            <mxPoint x="-320" y="790" as="targetPoint" />
            <Array as="points">
              <mxPoint x="-290" y="938" />
              <mxPoint x="-290" y="791" />
              <mxPoint x="-320" y="791" />
            </Array>
          </mxGeometry>
        </mxCell>
        <mxCell id="hHqcD5JZKNowdcuXRPlC-33" value="" style="whiteSpace=wrap;html=1;aspect=fixed;fillColor=#e1d5e7;strokeColor=#9673a6;" vertex="1" parent="1">
          <mxGeometry x="-70" y="756.75" width="220" height="220" as="geometry" />
        </mxCell>
        <mxCell id="hHqcD5JZKNowdcuXRPlC-36" value="saisir&amp;nbsp; nouveau mdp" style="rounded=0;whiteSpace=wrap;html=1;" vertex="1" parent="1">
          <mxGeometry x="-45" y="786.75" width="150" height="40" as="geometry" />
        </mxCell>
        <mxCell id="hHqcD5JZKNowdcuXRPlC-37" value="confirmer&amp;nbsp; nouveau&amp;nbsp; mdp" style="rounded=0;whiteSpace=wrap;html=1;" vertex="1" parent="1">
          <mxGeometry x="-45" y="846.75" width="150" height="40" as="geometry" />
        </mxCell>
        <mxCell id="hHqcD5JZKNowdcuXRPlC-38" value="submit" style="rounded=0;whiteSpace=wrap;html=1;fillColor=#dae8fc;strokeColor=#6c8ebf;" vertex="1" parent="1">
          <mxGeometry x="-30" y="896.75" width="120" height="40" as="geometry" />
        </mxCell>
        <mxCell id="hHqcD5JZKNowdcuXRPlC-47" value="submit" style="rounded=0;whiteSpace=wrap;html=1;fillColor=#dae8fc;strokeColor=#6c8ebf;" vertex="1" parent="1">
          <mxGeometry x="-45" y="680" width="120" height="30" as="geometry" />
        </mxCell>
      </root>
    </mxGraphModel>
  </diagram>
</mxfile>
